<svg width="91" height="105" viewBox="0 0 91 105" fill="none" xmlns="http://www.w3.org/2000/svg">
<path d="M44.7975 7.56548L44.6564 9.58147L39.1138 9.16309L39.7536 0L45.2337 0.413508L45.0928 2.42918L41.6286 2.16795L41.5225 3.68578L44.6722 3.9237L44.5329 5.91311L41.3836 5.67552L41.2702 7.29872L44.7975 7.56548Z" fill="black"/>
<path d="M67.6416 14.3135C66.2863 16.4981 63.6546 17.1485 61.5669 15.8003L58.538 13.8446L63.332 6.12146L66.3605 8.07722C68.4489 9.42503 68.9976 12.1288 67.6416 14.3135ZM65.9758 13.2379C66.7978 11.9137 66.4963 10.5443 65.3061 9.7757L64.008 8.93756L61.3233 13.2628L62.6216 14.1009C63.8118 14.8698 65.1544 14.5619 65.9758 13.2379Z" fill="black"/>
<path d="M77.4125 27.2218L82.8047 24.2206L83.8135 26.0478L78.581 28.9602C77.978 29.2958 77.6242 29.8661 78.1601 30.837C78.6958 31.8079 79.3657 31.8086 79.9686 31.4727L85.2012 28.5603L86.2106 30.3875L80.8184 33.3887C79.112 34.3381 77.3566 33.5836 76.3852 31.8246C75.4138 30.0659 75.7061 28.1714 77.4125 27.2218Z" fill="black"/>
<path d="M86.4008 48.1749C88.9603 48.1316 90.9558 50.051 90.9993 52.7429C91.0264 54.3628 90.267 55.8057 89.0498 56.6046L88.0267 54.861C88.6916 54.4543 89.0768 53.6822 89.0618 52.7764C89.0358 51.1947 87.9875 50.192 86.4341 50.2191C84.8813 50.2455 83.8666 51.2837 83.8923 52.866C83.9076 53.7718 84.3177 54.5427 84.9953 54.9139L84.03 56.6911C82.7875 55.9467 81.981 54.5318 81.954 52.8988C81.9098 50.2079 83.8411 48.2186 86.4008 48.1749Z" fill="black"/>
<path d="M76.9855 75.8L78.561 72.9575L77.5638 71.9118L78.6241 69.9988L84.8804 76.8175L83.644 79.048L74.5032 77.4318L75.5638 75.5188L76.9855 75.8ZM78.9262 76.1786L82.2496 76.8303L79.9202 74.3858L78.9262 76.1786Z" fill="black"/>
<path d="M64.3016 96.3211L66.1627 95.0117L62.2636 89.2606L63.9183 88.0961L67.8171 93.8479L69.6788 92.5385L70.7782 94.1602L65.4019 97.9438L64.3016 96.3211Z" fill="black"/>
<path d="M46.8768 104.597L45.2341 95.9066L47.3166 95.5481L48.9593 104.239L46.8768 104.597Z" fill="black"/>
<path d="M29.3498 100.339C28.6396 102.94 26.1516 104.339 23.7564 103.604C21.3606 102.87 19.9631 100.278 20.6739 97.678C21.3845 95.077 23.8721 93.6773 26.2676 94.4123C28.6632 95.147 30.0607 97.7371 29.3498 100.339ZM22.5807 98.2625C22.1496 99.8412 22.9361 101.218 24.2948 101.635C25.6532 102.051 27.012 101.332 27.4434 99.7538C27.8741 98.1757 27.088 96.7987 25.7295 96.3814C24.3711 95.9651 23.0121 96.6847 22.5807 98.2625Z" fill="black"/>
<path d="M0 88.6774L6.08128 82.2414L7.19252 83.2753L6.39243 89.0985L9.69372 85.6037L11.1754 86.9837L5.09419 93.4198L3.98264 92.3858L4.78273 86.5633L1.48175 90.0568L0 88.6774Z" fill="black"/>
<path d="M69.1814 56.1579C69.8485 55.143 69.8337 53.54 69.6208 53.2402C71.4336 53.0423 70.0611 55.8468 69.1814 56.1579Z" fill="black"/>
<path d="M44.8747 49.2972C44.6544 48.8562 43.93 48.6058 44.0378 47.865C44.0409 47.8418 44.014 47.8144 43.9978 47.7908C43.8462 47.5685 43.7035 47.5845 43.5497 47.8189C43.1766 48.3909 42.7922 48.9562 42.4079 49.5176C41.3501 51.0597 37.4008 56.1608 36.0371 56.3299C35.7677 56.3631 35.6552 56.1542 35.6368 55.9229C35.5627 55.0554 36.4199 52.8623 37.7267 51.1826C36.4739 53.4563 36.2724 54.835 36.5346 55.1477C37.463 51.6785 40.5298 48.4071 43.0763 46.1863C43.1288 46.1315 43.1747 46.087 43.1738 46.0389C43.1657 45.2936 42.091 44.4729 40.8976 44.5219C41.0582 43.9968 40.6185 43.6343 40.2776 43.649C39.9426 44.2866 38.1517 47.0507 37.1758 48.1338C34.5987 51.0326 30.8694 54.0197 26.8796 55.7375C26.8017 55.7777 27.603 56.572 29.2573 55.7885C29.2223 55.8719 28.7661 56.2838 28.3492 56.336C28.577 56.5446 29.4645 56.5669 30.1691 56.3341C31.7535 55.8137 34.2075 53.1964 34.9396 52.2152C34.4953 52.9798 32.6081 55.9468 32.2406 58.2796C32.0488 59.4988 32.1882 60.5068 32.8881 60.6116C33.0244 61.7766 33.8881 62.6212 34.5134 62.54C34.6203 62.5266 34.7312 62.438 34.764 62.267C35.3796 59.0653 39.6386 53.7152 40.0273 54.2572C38.6652 56.1207 37.4477 59.716 38.0549 61.4196C38.418 62.4441 39.9513 62.8374 41.941 62.0301C40.3511 61.2581 40.7098 57.3083 41.3226 55.7618C40.8273 58.273 41.1451 60.5062 41.8057 61.0262L41.8451 60.9998C40.8229 56.286 43.1584 51.8549 44.85 50.0231C45.0006 49.761 45.005 49.5578 44.8747 49.2972Z" fill="black"/>
<path d="M23.0631 67.047C21.1963 67.3936 20.2609 63.9112 23.013 62.7421C23.7387 62.434 24.9968 62.4283 25.0118 63.1793C21.6242 63.9046 21.6711 66.7987 23.0631 67.047Z" fill="black"/>
<path d="M29.0031 32.4695C16.5201 35.4566 3.62588 46.3001 10.3694 48.9709C8.39754 45.7302 13.7367 37.6222 29.0031 32.4695Z" fill="black"/>
<path d="M18.8635 71.5834C19.5331 71.4687 19.577 70.8751 19.1317 70.5062C18.184 69.7203 17.7989 68.385 18.2286 67.6024C17.6453 68.0349 17.0391 69.202 17.4078 70.3554C17.6373 71.0751 18.2686 71.6859 18.8635 71.5834Z" fill="black"/>
<path d="M34.039 42.828C32.8217 44.69 27.9461 47.4828 23.1304 47.3799C23.8826 48.7903 25.6146 50.0946 28.9156 49.5309C35.8578 48.3435 44.2048 39.4249 43.6071 33.3245C43.581 33.3245 43.5549 33.3245 43.5295 33.3245C43.3471 35.3287 42.0484 38.2041 40.8334 39.1975C41.5573 38.2819 42.9057 35.7943 42.8739 33.1892C42.7972 26.755 34.3056 24.9664 24.4705 29.1127C24.431 29.1295 30.0939 27.5369 32.5797 27.8535C17.5391 30.1947 5.63312 41.2732 5.32998 48.6947C4.79719 61.752 29.903 55.152 29.0855 63.184C30.3426 59.2473 22.9532 56.9677 22.0982 56.397C22.1911 56.3563 22.2575 56.3576 22.3189 56.3703C24.4281 56.7908 29.5458 59.0456 29.6622 62.014C29.861 67.0893 22.8138 68.231 21.4235 67.1931C21.629 67.9839 23.2986 68.982 25.1108 68.5397C24.2917 68.9779 20.8147 68.9906 20.6452 66.3432C20.5427 64.7462 21.329 63.7131 21.329 63.7131C21.1744 63.7258 20.8325 64.2139 20.7244 64.4232C20.6502 64.5645 20.5786 64.677 20.3833 64.6642C20.2988 64.6595 20.1623 64.7281 20.1209 64.8087C18.6895 67.5584 20.7021 70.8011 24.5958 70.5128C27.1382 70.3254 28.8482 69.138 29.5449 68.3872C29.1688 68.6429 28.4624 69.0865 27.9181 69.1637C27.9099 69.1424 27.9013 69.1208 27.8924 69.0999C29.7201 68.0376 31.2332 66.4684 31.4972 64.3511C32.907 53.0916 9.25039 54.4238 8.13614 47.761C6.6475 38.8624 34.5174 26.8839 41.0261 32.5597C40.2894 28.8958 30.5815 30.5221 30.5789 30.4951C35.3267 28.9196 41.7224 29.215 41.8716 33.0405C41.9921 36.1023 36.0099 43.6629 24.5719 46.1401C26.8796 46.9013 31.815 44.7989 34.039 42.828Z" fill="black"/>
<path d="M68.5164 52.4762C68.0185 51.212 62.7343 51.7271 59.6166 53.0877C59.5493 52.9346 59.4786 52.7897 59.4018 52.6579C60.2892 50.3698 62.9839 46.1904 65.868 43.3416C66.3663 42.8502 66.8692 42.3991 67.3697 42.0032C67.4287 41.1505 65.1856 40.0429 63.7056 41.2576C61.8984 43.2012 60.0425 46.9867 59.2207 48.7806L59.0495 48.7863C59.4292 46.7782 61.4419 43.1187 62.6714 41.9221C61.0622 41.9794 57.6814 48.7585 55.8613 54.9925H55.8576C53.9381 55.8123 50.363 58.003 49.1408 59.3164C49.0723 59.3902 48.9839 59.1201 48.9779 59.0238C48.7699 55.7124 52.6555 53.314 55.74 51.121C56.1298 50.8433 55.8638 50.028 55.7004 49.8863C54.5388 51.62 51.3633 53.4389 49.9091 55.4306C50.9634 53.365 55.5466 50.4154 55.4756 49.2672C55.3728 47.6068 53.2902 45.8925 52.3984 45.4363C52.5609 45.1526 52.9652 44.3658 52.83 43.5273C52.6757 42.5675 51.6889 42.1459 50.855 42.2273C51.0049 42.7891 50.8411 43.6665 50.6886 44.1306C49.0654 43.0205 46.5418 42.8512 46.5188 44.2704C47.6416 43.456 49.9682 44.0475 50.9942 44.7541C46.4657 43.2665 45.3048 45.7451 45.8888 47.0571C45.8888 47.0571 47.7756 46.9994 49.2898 47.5662C48.9491 48.5445 46.6926 53.0921 44.1128 55.9194C44.2954 55.8605 44.4708 55.8227 44.6283 55.7508C44.9401 55.6116 47.802 51.7259 48.5938 50.5175C48.6096 50.5935 47.9585 51.9649 46.7565 53.8355C48.0921 52.2803 50.2467 48.8875 50.7861 48.0179C50.7861 48.0179 52.3663 48.645 52.4361 49.764C52.5524 51.659 44.3432 56.2152 44.4661 59.7186C44.4881 60.3625 44.8191 61.3005 45.4836 61.91C45.2146 61.3642 45.0819 60.6487 45.169 59.8473C45.2897 58.735 45.8357 57.4584 47.0362 56.2446C44.827 59.0206 45.6072 61.5341 46.0809 62.2226C38.8697 62.6854 33.0303 65.2794 33.0027 69.3091C33.0196 69.3982 32.9442 69.5199 32.8886 69.6077C32.163 70.7692 32.4793 72.2172 32.9744 72.3925C36.3709 68.2405 42.1946 64.8502 47.3069 63.877C47.3069 63.7807 46.8947 63.7958 46.2246 63.903C43.75 64.2558 40.6166 65.1605 38.0926 66.6964C38.0241 64.5576 47.1931 62.3903 52.9671 63.2199C53.0614 62.3707 51.2749 62.0419 49.2882 62.0086C50.2326 58.2126 56.1512 55.0679 58.4289 54.2808C56.1816 55.2487 52.5704 57.5032 50.9609 59.9589C52.4814 58.5847 54.5055 57.1005 55.3621 56.6989C53.2513 65.5422 55.4882 69.1395 57.0851 69.0824C58.1954 69.0444 59.2242 67.8817 59.8664 65.2182C59.3622 66.4136 58.7207 67.2191 58.112 67.2407C56.601 67.294 56.4016 65.028 56.4016 65.028C57.3658 67.5161 60.1402 65.5793 60.4439 61.1398C60.4643 60.8326 60.4841 60.5181 60.4986 60.1903C60.5643 58.7464 60.5024 56.962 60.2443 55.4008C62.4051 54.7313 65.9045 54.6841 66.8491 55.422C67.0827 54.1052 64.6807 53.7955 60.7897 54.6556C63.4243 53.7914 67.1487 53.4865 67.3948 54.7554C67.5196 55.3986 67.1522 56.3486 66.8715 56.7148C66.7363 56.8907 67.1839 56.7566 67.3021 56.6032C67.9534 55.7587 69.0244 53.7629 68.5164 52.4762ZM57.9411 64.26C56.7409 64.3323 56.943 59.6248 58.3827 55.8639C58.516 55.8053 58.6675 55.7523 58.8316 55.7023C59.0803 58.5981 58.6175 61.6951 58.14 63.056C58.8262 63.0319 59.5798 60.0071 59.5364 57.1345L59.6781 57.13C60.0645 61.7027 58.6964 64.2327 57.9411 64.26Z" fill="black"/>
</svg>
